<?xml version="1.0" encoding="UTF-8"?>
<svg id="Layer_1" data-name="Layer 1" xmlns="http://www.w3.org/2000/svg" version="1.1" viewBox="0 0 1366 768">
  <defs>
    <style>
      .cls-1 {
        fill: #000;
      }

      .cls-1, .cls-2 {
        stroke: #000;
      }

      .cls-1, .cls-2, .cls-3 {
        stroke-miterlimit: 10;
      }

      .cls-2, .cls-4, .cls-3 {
        fill: #fff;
      }

      .cls-4, .cls-5 {
        stroke-width: 0px;
      }

      .cls-3 {
        stroke: #fff;
      }

      .cls-5 {
        fill: #ffe1e1;
      }
    </style>
  </defs>
  <g>
    <path class="cls-4" d="M515.49,578.28c-36.61,0-83.78-26.93-132.82-75.82-43.76-43.62-84.59-100.12-118.09-163.41-26.92-50.86-47.03-102.64-58.19-149.76,1.94-12.26,4.45-24.38,7.45-36.03,7.06-7.1,18.56-17.5,33.4-26.97,25.55-16.28,52.32-24.53,79.58-24.53,5.17,0,10.41.3,15.59.9,36.71,4.28,73.62,23.64,109.7,57.54,10.48,14.12,20.7,29.03,30.38,44.32,10.53,16.64,20.62,34.03,29.97,51.7,29.61,55.92,50.75,112.3,61.14,163.05,10.13,49.49,9.52,90.6-1.79,118.87-7.62,19.07-19.82,31.53-36.25,37.04-6.17,2.07-12.92,3.12-20.06,3.12Z"/>
    <path class="cls-4" d="M326.81,101.25v1h0c5.15,0,10.37.3,15.53.9,36.59,4.27,73.39,23.57,109.38,57.37,10.46,14.11,20.67,28.99,30.33,44.25,10.53,16.63,20.61,34.02,29.96,51.67,29.58,55.87,50.71,112.21,61.09,162.91,10.11,49.4,9.51,90.4-1.76,118.58-7.57,18.93-19.66,31.29-35.94,36.75-6.12,2.05-12.82,3.09-19.9,3.09-18.28,0-39.23-6.73-62.26-20-22.58-13.01-46.2-31.74-70.2-55.67-21.21-21.14-41.99-45.66-61.77-72.87-20.46-28.16-39.39-58.58-56.24-90.42-26.88-50.79-46.97-102.49-58.12-149.55,1.93-12.17,4.42-24.19,7.39-35.76,7.05-7.08,18.49-17.4,33.22-26.81,25.47-16.23,52.15-24.46,79.31-24.46v-1M326.81,101.25c-31.92,0-59.04,11.36-79.84,24.61-14.4,9.19-25.77,19.28-33.58,27.14-3,11.65-5.52,23.79-7.51,36.31,10.83,45.8,30.36,97.27,58.25,149.98,34.5,65.17,76.28,121.76,118.18,163.53,47.74,47.59,95.63,75.96,133.17,75.96,7.14,0,13.91-1.03,20.22-3.14,68.69-23.01,58.47-166.13-22.82-319.66-9.5-17.94-19.54-35.23-29.99-51.74-9.82-15.51-20-30.32-30.4-44.35t-.01-.02c-40.05-37.64-77.22-53.88-110.02-57.71-5.33-.62-10.55-.91-15.65-.91h0Z"/>
  </g>
  <g>
    <path class="cls-5" d="M499.76,537.83c-25.58,0-58.95-18.11-93.98-50.99-38.24-35.9-75.7-86.65-105.49-142.9-22.42-42.35-39.14-85.29-48.35-124.17-8.93-37.7-10.5-70.05-4.54-93.58,25.5-16.21,52.21-24.43,79.41-24.43,5.13,0,10.34.3,15.48.89,48.22,28.84,101.8,90.61,143.34,165.26,2.25,4.06,4.43,8.08,6.48,11.95,24.15,45.61,41.52,91.44,50.24,132.56,8.51,40.11,8.29,73.09-.62,95.38-5.71,14.29-14.82,23.62-27.06,27.72-4.59,1.54-9.61,2.32-14.92,2.32Z"/>
    <path class="cls-4" d="M326.81,101.25v1c5.08,0,10.23.29,15.32.88,48.12,28.83,101.59,90.49,143.07,165.02,2.25,4.06,4.43,8.07,6.48,11.95,24.13,45.57,41.48,91.36,50.19,132.43,8.49,40.01,8.28,72.89-.59,95.09-5.66,14.15-14.66,23.38-26.75,27.43-4.54,1.52-9.5,2.29-14.76,2.29-25.45,0-58.7-18.06-93.63-50.85-38.2-35.86-75.63-86.57-105.39-142.77-22.4-42.31-39.11-85.21-48.31-124.05-8.89-37.51-10.47-69.71-4.59-93.15,25.36-16.09,51.93-24.24,78.97-24.24v-1M326.81,101.25c-31.92,0-59.04,11.36-79.84,24.61-12.1,47.37,6.44,130.57,52.89,218.3,30.94,58.44,68.72,108.42,105.59,143.04,34.32,32.22,67.85,51.12,94.32,51.12,5.33,0,10.37-.77,15.08-2.34,53.23-17.83,43.24-132.6-22.28-256.36-2.13-4.02-4.3-8.02-6.49-11.96-42.76-76.83-96.89-137.59-143.62-165.5-5.33-.62-10.55-.91-15.65-.91h0Z"/>
  </g>
  <path class="cls-3" d="M486.16,258.53c0,3.06-.03,6.1-.09,9.13-1.92,96.75-34.32,179.72-80.63,219.54-7.39,6.34-15.11,11.58-23.13,15.61-12.39,6.24-25.48,9.58-38.99,9.58-78.88,0-142.83-113.66-142.83-253.87,0-24,1.87-47.21,5.38-69.22,1.98-12.52,4.5-24.66,7.51-36.31,7.81-7.86,19.18-17.94,33.58-27.14,24.12-15.37,56.75-28.19,95.49-23.71,32.81,3.83,69.97,20.07,110.02,57.71t.01.02c10.41,14.03,20.58,28.84,30.4,44.35,2.13,17.48,3.26,35.65,3.26,54.29Z"/>
  <g>
    <path class="cls-4" d="M909.32,577.79c-7.14,0-13.89-1.05-20.06-3.12-16.43-5.5-28.62-17.96-36.25-37.04-11.3-28.27-11.92-69.38-1.79-118.87,10.39-50.75,31.53-107.13,61.14-163.05,35.44-66.95,80.48-127.99,126.82-171.9,45.82-43.42,89.89-67.33,124.08-67.33,7.14,0,13.89,1.05,20.06,3.12,16.43,5.5,28.62,17.96,36.25,37.04,11.3,28.27,11.92,69.38,1.79,118.87-10.39,50.75-31.53,107.13-61.14,163.05-35.44,66.95-80.48,127.99-126.82,171.9-45.82,43.42-89.89,67.33-124.08,67.33Z"/>
    <path class="cls-4" d="M1163.27,17c7.08,0,13.78,1.04,19.9,3.09,16.28,5.45,28.38,17.82,35.94,36.75,11.27,28.18,11.88,69.19,1.76,118.58-10.38,50.71-31.51,107.04-61.09,162.92-35.42,66.9-80.42,127.9-126.72,171.77-45.73,43.33-89.67,67.19-123.74,67.19-7.08,0-13.78-1.04-19.9-3.09-16.28-5.45-28.38-17.82-35.94-36.75-11.27-28.18-11.88-69.19-1.76-118.58,10.38-50.71,31.51-107.04,61.09-162.92,35.42-66.9,80.42-127.9,126.72-171.76,45.73-43.33,89.67-67.19,123.74-67.19h0M1163.26,16c-70.49,0-177.53,100.07-251.35,239.49-81.29,153.54-91.51,296.66-22.82,319.66,6.32,2.12,13.08,3.14,20.22,3.14,70.49,0,177.53-100.07,251.35-239.49,81.29-153.54,91.51-296.66,22.82-319.66-6.32-2.12-13.08-3.14-20.22-3.14h0Z"/>
  </g>
  <g>
    <path class="cls-5" d="M925.04,537.34c-5.31,0-10.33-.78-14.91-2.31-12.23-4.1-21.33-13.42-27.05-27.71-8.91-22.29-9.12-55.27-.62-95.38,8.72-41.12,26.09-86.96,50.24-132.56,28.68-54.18,64.79-103.63,101.67-139.26,36.47-35.23,71.21-54.63,97.81-54.63,5.31,0,10.33.78,14.92,2.32,12.23,4.1,21.33,13.42,27.05,27.71,8.91,22.29,9.12,55.27.62,95.38-8.72,41.12-26.09,86.96-50.24,132.56-28.68,54.18-64.79,103.63-101.67,139.26-36.47,35.23-71.21,54.63-97.81,54.63Z"/>
    <path class="cls-4" d="M1132.18,85.98c5.25,0,10.22.77,14.75,2.29,12.09,4.05,21.09,13.28,26.74,27.42,8.87,22.19,9.08,55.07.59,95.09-8.71,41.07-26.07,86.87-50.19,132.43-28.66,54.13-64.73,103.54-101.58,139.13-36.38,35.14-70.99,54.49-97.46,54.49-5.26,0-10.22-.77-14.76-2.29-12.09-4.05-21.09-13.28-26.74-27.42-8.87-22.19-9.08-55.07-.59-95.09,8.71-41.07,26.07-86.87,50.19-132.43,28.66-54.13,64.73-103.54,101.58-139.13,36.38-35.14,70.99-54.49,97.47-54.49h0M1132.18,84.98c-54.92,0-140.19,81.34-199.92,194.15-65.53,123.76-75.51,238.54-22.29,256.36,4.71,1.58,9.75,2.34,15.07,2.34,54.92,0,140.19-81.34,199.92-194.15,65.53-123.76,75.51-238.54,22.29-256.36-4.71-1.58-9.75-2.34-15.07-2.34h0Z"/>
  </g>
  <g>
    <path class="cls-4" d="M344.56,767.5c.07-46.23,9.69-91.08,28.59-133.31,18.32-40.94,44.56-77.7,77.97-109.28,68.73-64.94,160.1-100.7,257.3-100.7s188.57,35.76,257.3,100.7c33.41,31.57,59.65,68.34,77.97,109.28,18.9,42.23,28.52,87.08,28.59,133.31H344.56Z"/>
    <path class="cls-4" d="M708.42,424.71c49.06,0,96.65,9.08,141.45,26.98,43.27,17.29,82.13,42.05,115.5,73.58,33.37,31.53,59.56,68.24,77.86,109.12,18.81,42.01,28.41,86.62,28.54,132.6H345.06c.14-45.98,9.74-90.59,28.54-132.6,18.3-40.88,44.49-77.59,77.86-109.12,33.37-31.53,72.23-56.29,115.5-73.58,44.8-17.91,92.39-26.98,141.45-26.98M708.42,423.71c-201.23,0-364.36,154.14-364.36,344.29h728.72c0-190.15-163.13-344.29-364.36-344.29h0Z"/>
  </g>
  <g>
    <ellipse class="cls-1" cx="837.4" cy="632.37" rx="40.81" ry="51.58"/>
    <ellipse class="cls-2" cx="819.91" cy="619.62" rx="7.29" ry="17.97"/>
  </g>
  <g>
    <ellipse class="cls-1" cx="548.83" cy="632.37" rx="40.81" ry="51.58"/>
    <ellipse class="cls-2" cx="531.34" cy="619.62" rx="7.29" ry="17.97"/>
  </g>
  <g>
    <path class="cls-4" d="M202.09,767.5c5.2-58.64,67.1-104.49,141.23-104.49s136.04,45.85,141.24,104.49H202.09Z"/>
    <path class="cls-4" d="M343.33,663.51c36.1,0,70.44,10.82,96.71,30.45,25.75,19.26,41.34,45.15,43.98,73.03H202.64c2.64-27.88,18.23-53.78,43.98-73.03,26.27-19.64,60.61-30.45,96.71-30.45M343.33,662.51c-75.31,0-136.91,46.58-141.78,105.49h283.56c-4.87-58.91-66.47-105.49-141.78-105.49h0Z"/>
  </g>
  <g>
    <path class="cls-4" d="M894.21,767.5c-.13-1.89-.2-3.86-.2-5.88,0-62.04,63.52-112.52,141.6-112.52s141.6,50.48,141.6,112.52c0,2.02-.07,4-.2,5.88h-282.8Z"/>
    <path class="cls-4" d="M1035.61,649.6c37.73,0,73.2,11.68,99.86,32.89,26.59,21.15,41.24,49.26,41.24,79.14,0,1.84-.06,3.64-.17,5.38h-281.87c-.11-1.73-.17-3.54-.17-5.38,0-29.88,14.65-57.98,41.24-79.14,26.66-21.21,62.13-32.89,99.86-32.89M1035.61,648.6c-78.48,0-142.1,50.6-142.1,113.02,0,2.14.07,4.27.23,6.38h283.73c.16-2.11.23-4.23.23-6.38,0-62.42-63.62-113.02-142.1-113.02h0Z"/>
  </g>
</svg>